<?xml version="1.0" standalone="no"?>
<!DOCTYPE svg PUBLIC "-//W3C//DTD SVG 20010904//EN"
 "http://www.w3.org/TR/2001/REC-SVG-20010904/DTD/svg10.dtd">
<svg version="1.0" xmlns="http://www.w3.org/2000/svg"
 width="154.000000pt" height="154.000000pt" viewBox="0 0 154.000000 154.000000"
 preserveAspectRatio="xMidYMid meet">

<g transform="translate(0.000000,154.000000) scale(0.100000,-0.100000)"
fill="#ffffffff" stroke="none">
<path d="M10 925 l0 -616 338 3 c327 3 338 4 387 26 55 25 128 91 152 136 15
28 15 29 -9 21 -12 -5 -177 -10 -365 -12 l-343 -4 -2 528 -3 528 -77 3 -78 3
0 -616z"/>
<path d="M310 1080 l0 -460 85 0 85 0 0 381 0 381 198 -4 c168 -4 207 -8 262
-26 195 -64 351 -223 409 -416 18 -58 21 -94 21 -245 0 -121 -5 -196 -15 -240
-18 -73 -83 -218 -122 -269 -39 -51 0 -26 69 45 161 166 237 365 225 588 -6
117 -31 205 -90 320 -32 62 -63 102 -137 176 -81 82 -109 102 -190 142 -159
79 -209 87 -527 87 l-273 0 0 -460z"/>
<path d="M614 1227 c-3 -8 -4 -45 -2 -83 l3 -69 125 -5 c113 -5 129 -8 171
-32 54 -32 100 -81 131 -141 19 -36 23 -61 26 -178 4 -156 -6 -222 -49 -307
-37 -74 -130 -165 -203 -197 -87 -38 -159 -45 -493 -45 l-313 0 0 -81 0 -81
363 4 c361 4 362 4 443 31 196 65 347 226 398 424 22 83 22 346 1 428 -23 86
-61 149 -130 214 -101 94 -204 131 -367 131 -74 0 -100 -3 -104 -13z"/>
</g>
</svg>
